<?xml version="1.0" standalone="no"?><!-- Generator: Gravit.io --><svg xmlns="http://www.w3.org/2000/svg" xmlns:xlink="http://www.w3.org/1999/xlink" style="isolation:isolate" viewBox="0 0 800 800" width="800" height="800"><path d=" M -293.683 205.81 C -254.172 137.967 -169.254 160.576 -135.633 206.386 C -96.122 240.319 -96.122 308.155 -135.633 375.998 C -163.297 426.882 -238.009 500.733 -293.683 454.244 C -341.142 498.924 -424.084 426.882 -451.733 375.998 C -491.244 308.155 -491.244 240.312 -451.733 206.386 C -415.325 167.813 -333.194 137.967 -293.683 205.81 Z " fill-rule="evenodd" fill="rgb(141,153,6)"/><path d=" M -296.683 198.102 C -257.172 130.259 -172.254 152.868 -138.633 198.678 C -99.122 232.611 -99.122 300.447 -138.633 368.29 C -166.297 419.174 -241.009 493.025 -296.683 446.537 C -344.142 491.216 -427.084 419.174 -454.733 368.29 C -494.244 300.447 -494.244 232.604 -454.733 198.678 C -418.325 160.106 -336.194 130.259 -296.683 198.102 Z " fill-rule="evenodd" fill="rgb(192,208,17)"/><path d=" M -184.249 185.193 C -169.585 185.651 -138.088 247.152 -153.515 225.193 C -167.755 204.924 -173.784 199.634 -197.249 196.193 C -223.457 183.553 -219.114 179.897 -184.249 185.193 Z " fill="rgb(249,133,133)"/><path d=" M -296.683 170.012 C -346.471 150.803 -377.295 144.926 -397.366 123.012 Q -415.091 98.311 -420.366 26.012 Q -338.24 49.737 -321.366 71.012 Q -305.484 102.65 -296.683 170.012 Z " fill="rgb(41,195,77)"/><path d=" M -296.683 196.193 Q -315.012 156.107 -245.366 98.012 Q -237.453 105.43 -230.366 112.012 Q -291.661 145.854 -296.683 196.193 Z " fill="rgb(130,81,3)"/><path d=" M 1007.317 236.711 C 1046.828 168.868 1131.746 191.478 1165.367 237.288 C 1204.878 271.221 1204.878 339.056 1165.367 406.899 C 1137.703 457.783 1062.991 531.635 1007.317 485.146 C 959.858 529.826 876.916 457.783 849.267 406.899 C 809.756 339.056 809.756 271.213 849.267 237.288 C 885.675 198.715 967.806 168.868 1007.317 236.711 Z " fill-rule="evenodd" fill="rgb(153,6,6)"/><path d=" M 1004.317 229.003 C 1043.828 161.16 1128.746 183.77 1162.367 229.58 C 1201.878 263.513 1201.878 331.348 1162.367 399.191 C 1134.703 450.076 1059.991 523.927 1004.317 477.438 C 956.858 522.118 873.916 450.076 846.267 399.191 C 806.756 331.348 806.756 263.505 846.267 229.58 C 882.675 191.007 964.806 161.16 1004.317 229.003 Z " fill-rule="evenodd" fill="rgb(208,17,17)"/><path d=" M 1116.751 216.094 C 1131.415 216.552 1162.912 278.053 1147.485 256.094 C 1133.245 235.825 1127.216 230.535 1103.751 227.094 C 1077.543 214.455 1081.886 210.798 1116.751 216.094 Z " fill="rgb(249,133,133)"/><path d=" M 1004.317 200.914 C 954.529 181.705 923.705 175.827 903.634 153.914 Q 885.909 129.213 880.634 56.914 Q 962.76 80.638 979.634 101.914 Q 995.516 133.552 1004.317 200.914 Z " fill="rgb(41,195,77)"/><path d=" M 1004.317 227.094 Q 985.988 187.008 1055.634 128.914 Q 1063.547 136.331 1070.634 142.914 Q 1009.339 176.755 1004.317 227.094 Z " fill="rgb(130,81,3)"/><path d=" M -369.423 581.81 C -329.912 513.967 -244.994 536.576 -211.373 582.386 C -171.862 616.319 -171.862 684.155 -211.373 751.998 C -239.037 802.882 -313.749 876.733 -369.423 830.244 C -416.882 874.924 -499.824 802.882 -527.473 751.998 C -566.984 684.155 -566.984 616.312 -527.473 582.386 C -491.065 543.813 -408.934 513.967 -369.423 581.81 Z " fill-rule="evenodd" fill="rgb(6,153,40)"/><path d=" M -372.423 574.102 C -332.912 506.259 -247.994 528.868 -214.373 574.678 C -174.862 608.611 -174.862 676.447 -214.373 744.29 C -242.037 795.174 -316.749 869.025 -372.423 822.537 C -419.882 867.216 -502.824 795.174 -530.473 744.29 C -569.984 676.447 -569.984 608.604 -530.473 574.678 C -494.065 536.106 -411.934 506.259 -372.423 574.102 Z " fill-rule="evenodd" fill="rgb(36,208,17)"/><path d=" M -259.988 561.193 C -245.324 561.651 -213.828 623.152 -229.255 601.193 C -243.495 580.924 -249.524 575.634 -272.988 572.193 C -299.197 559.553 -294.854 555.897 -259.988 561.193 Z " fill="rgb(133,249,164)"/><path d=" M -372.423 546.012 C -422.211 526.803 -453.035 520.926 -473.106 499.012 Q -490.83 474.311 -496.106 402.012 Q -413.98 425.737 -397.106 447.012 Q -381.224 478.65 -372.423 546.012 Z " fill="rgb(0,142,33)"/><path d=" M -372.423 572.193 Q -390.752 532.107 -321.106 474.012 Q -313.193 481.43 -306.106 488.012 Q -367.401 521.854 -372.423 572.193 Z " fill="rgb(130,81,3)"/><path d=" M 594.725 594.658 L 477.035 626.193 L 359.344 657.728 C 332.689 664.871 295.206 654.827 275.693 635.314 L 189.537 549.159 L 103.382 463.004 C 83.869 443.49 73.826 406.007 80.968 379.352 L 112.503 261.662 L 144.038 143.971 C 151.18 117.316 178.62 89.876 205.275 82.734 L 322.965 51.199 L 440.656 19.664 C 467.311 12.522 504.794 22.565 524.307 42.079 L 610.463 128.234 L 696.618 214.389 C 716.131 233.902 726.174 271.385 719.032 298.041 L 687.497 415.731 L 655.962 533.421 C 648.82 560.077 621.38 587.516 594.725 594.658 Z  M 588.795 445.459 C 578.056 469.252 572.939 479.9 559.112 500.874 C 539.897 530.27 512.674 566.885 479.023 567.1 C 449.124 567.37 441.421 547.599 400.802 547.94 C 360.183 548.084 351.689 567.441 321.754 567.154 C 288.139 566.885 262.406 533.844 243.102 504.592 C 189.177 422.456 183.503 326.152 216.831 274.956 C 240.391 238.629 277.706 217.314 312.794 217.314 C 348.421 217.314 370.867 236.887 400.389 236.887 C 429.012 236.887 446.413 217.224 487.732 217.224 C 518.87 217.224 551.911 234.211 575.47 263.589 C 604.045 295.733 615.447 383.692 588.813 445.495 L 588.795 445.459 L 588.795 445.459 Z  M 456.361 184.38 C 471.373 165.166 482.722 137.943 478.664 110.235 C 454.116 111.923 425.493 127.564 408.721 147.766 C 393.565 166.226 381.013 193.646 385.915 220.151 C 412.653 220.995 440.289 205.067 456.361 184.38 L 456.361 184.38 Z " fill-rule="evenodd" fill="rgb(227,39,25)"/><path d=" M 479.023 110.235 C 448.537 113.658 425.133 126.198 408.721 147.766 C 388.66 173.69 381.069 197.828 385.915 220.151 C 412.213 222.568 435.705 210.655 456.361 184.38 C 474.574 162.459 482.158 137.774 479.023 110.235 Z " fill="rgb(76,175,80)"/><path d=" M 601.384 257.879 C 494.555 204.888 408.424 252.084 356.609 402.577 C 340.952 449.987 316.796 472.448 289.121 490.664 C 272.043 515.136 281.968 550.096 300.119 562.985 C 366.304 620.272 463.653 598.11 546.852 534.543 C 608.724 483.609 634.012 410.935 636.325 337.774 C 637.623 297.386 625.984 270.766 601.384 257.879 Z " fill="rgb(255,139,1)"/><path d=" M 578.01 276.457 C 542.042 252.251 507.645 250.145 474.799 270.101 C 438.932 291.759 410.962 327.054 390.868 375.948 C 443.583 296.336 505.994 263.22 578.01 276.457 Z " fill="rgb(255,254,84)"/><path d=" M 560.828 120.716 C 549.544 149.243 549.636 175.795 560.98 200.409 C 574.459 230.288 592.212 248.319 614.199 254.514 C 628.674 232.427 629.177 206.091 615.668 175.521 C 604.857 149.151 586.617 130.871 560.828 120.716 Z " fill="rgb(58,142,60)"/><path d=" M 552.352 205.075 C 554.852 221.969 562.287 234.745 574.608 243.455 C 589.424 254.109 603.002 257.86 615.327 254.727 C 616.158 240.048 609.07 227.211 594.047 216.233 C 581.495 206.529 567.612 202.792 552.352 205.075 Z " fill="rgb(109,210,112)"/><g transform="matrix(1,0,0,1,57,660.029)"><text transform="matrix(1,0,0,1,0,90.527)" style="font-family:&quot;Arial&quot;;font-weight:400;font-size:100px;font-style:normal;fill:#e32719;stroke:none;">DELHI </text><text transform="matrix(1,0,0,1,322.314,90.527)" style="font-family:&quot;Arial&quot;;font-weight:400;font-size:100px;font-style:normal;fill:#ff8b01;stroke:none;">FRUITS</text></g><rect x="64.501" y="761.111" width="282.499" height="10.637" transform="matrix(-1,0,0,-1,411.501,1532.859)" fill="rgb(58,142,60)"/><rect x="386.231" y="761.111" width="348.269" height="10.637" transform="matrix(-1,0,0,-1,1120.732,1532.859)" fill="rgb(58,142,60)"/></svg>